<?xml version="1.0" encoding="UTF-8"?>
<svg version="1.1" xmlns="http://www.w3.org/2000/svg" width="512" height="512">
<path d="M0 0 C0.66 0 1.32 0 2 0 C4.06560804 7.96503351 5.86214225 15.94098627 7.42016602 24.01977539 C7.64172363 25.15477982 7.86328125 26.28978424 8.09155273 27.45918274 C8.81539584 31.17141921 9.53471292 34.88451641 10.25390625 38.59765625 C10.76023373 41.1997935 11.2667999 43.80188321 11.77366638 46.40391541 C12.83225859 51.8408901 13.88852054 57.27831302 14.94311523 62.71606445 C16.42414941 70.35260652 17.9096574 77.98827338 19.39594376 85.62379467 C20.55787937 91.59406415 21.71839594 97.56460959 22.87890625 103.53515625 C23.24610873 105.42381755 23.24610873 105.42381755 23.62072945 107.35063362 C24.3176498 110.93681625 25.01360461 114.52318483 25.70922852 118.10961914 C25.91239182 119.15460571 26.11555511 120.19959229 26.32487488 121.27624512 C27.59710741 127.84257104 28.81806173 134.41682441 30 141 C37.40311839 139.21003086 44.80454237 137.41322071 52.20458984 135.6105957 C54.72010755 134.99878736 57.23605425 134.38873998 59.75244141 133.78051758 C63.37778206 132.9039277 67.00151217 132.02093209 70.625 131.13671875 C71.74302002 130.86784348 72.86104004 130.5989682 74.01293945 130.32194519 C75.07343506 130.06190201 76.13393066 129.80185883 77.2265625 129.53393555 C78.15033691 129.30965378 79.07411133 129.08537201 80.02587891 128.85429382 C83.15376265 128.00305138 83.15376265 128.00305138 86.69889832 126.57458496 C91.56165452 124.71493681 96.53746974 123.49867887 101.59106445 122.27270508 C102.62129227 122.01867416 103.65152008 121.76464325 104.71296692 121.50291443 C108.09523911 120.67028875 111.47918929 119.84472686 114.86328125 119.01953125 C117.22128703 118.44122012 119.57921128 117.86257647 121.9370575 117.28361511 C126.86622165 116.07440757 131.79619791 114.8685865 136.72680664 113.6652832 C143.05464634 112.12079525 149.38062629 110.56884247 155.70605183 109.01450062 C160.56858138 107.82032135 165.43194485 106.62956897 170.29558372 105.43991661 C172.62947896 104.86870357 174.96314006 104.29653306 177.2965641 103.72339821 C180.54885578 102.9252205 183.80221077 102.13153615 187.0559082 101.33911133 C188.0237323 101.10070526 188.9915564 100.86229919 189.9887085 100.6166687 C190.87317154 100.40223618 191.75763458 100.18780365 192.66889954 99.96687317 C193.82168632 99.68511844 193.82168632 99.68511844 194.99776173 99.3976717 C197 99 197 99 200 99 C199.57002259 103.46101559 196.46445433 106.01453356 193.5 109.0625 C188.8715584 113.9439256 184.50073252 118.93591031 180.28125 124.1796875 C171.95009691 134.47950348 163.36901545 144.63098455 154 154 C144.7561971 163.58137624 144.7561971 163.58137624 136.515625 174.01171875 C133.7347155 177.65987064 130.55767772 180.96337243 127.44921875 184.33203125 C125.38106952 186.58489556 123.3668039 188.86752704 121.375 191.1875 C119.01626328 193.90613786 116.56216466 196.47219387 114 199 C108.34322587 204.59125165 103.32222285 210.49402955 98.62109375 216.90234375 C95.62369477 220.7809058 92.30147558 224.38010799 89 228 C99.18534904 236.68222484 109.96383309 244.84013951 121.23046875 252.07421875 C124 254 124 254 126.3046875 256.32421875 C129.93877765 259.93197492 133.98356891 262.81458323 138.125 265.8125 C138.97666748 266.43415039 139.82833496 267.05580078 140.70581055 267.69628906 C143.13451977 269.46792154 145.56705332 271.2341943 148 273 C149.05574219 273.77214844 150.11148437 274.54429687 151.19921875 275.33984375 C155.55662891 278.52485656 159.93905321 281.67340066 164.33496094 284.80493164 C173.72945438 291.49918916 173.72945438 291.49918916 177.5625 294.3125 C178.39974609 294.92544922 178.39974609 294.92544922 179.25390625 295.55078125 C181 297 181 297 183.2578125 299.34765625 C186.93032668 302.89984589 191.02462003 305.60279415 195.26757812 308.42578125 C196.89632079 309.54608044 198.45512899 310.76661178 200 312 C200 312.99 200 313.98 200 315 C153.47 315 106.94 315 59 315 C61.97 328.86 64.94 342.72 68 357 C69.98 366.405 69.98 366.405 72 376 C72.66 377.98 73.32 379.96 74 382 C74.57509195 384.41363246 75.11501839 386.83578341 75.62890625 389.26318359 C75.77912452 389.96811007 75.92934278 390.67303654 76.08411312 391.39932442 C76.5802363 393.7316698 77.07139534 396.0650307 77.5625 398.3984375 C77.91366052 400.05454451 78.26511219 401.7105898 78.61683655 403.36657715 C79.55525973 407.78943822 80.4892786 412.21321821 81.42226028 416.63722992 C82.1915602 420.2827579 82.96324417 423.92777946 83.73493671 427.57280159 C85.99583643 438.25250437 88.2490436 448.93381882 90.49806976 459.61602783 C90.97280543 461.87083644 91.44771704 464.12560792 91.92266846 466.38037109 C93.64195883 474.5439929 95.35510596 482.70888208 97.0625 490.875 C97.27173096 491.8732782 97.48096191 492.8715564 97.6965332 493.90008545 C98.2699369 496.63866747 98.84060357 499.37780236 99.41015625 502.1171875 C99.57491959 502.90283081 99.73968292 503.68847412 99.90943909 504.4979248 C101 509.76945197 101 509.76945197 101 512 C97.75546082 512.36934334 96.43200811 512.34203874 93.82421875 510.27734375 C93.11910156 509.50519531 92.41398437 508.73304688 91.6875 507.9375 C87.656645 503.6726816 83.46841119 499.79723008 79 496 C77.83315193 495.00021168 76.66648036 494.00021732 75.5 493 C74.92636719 492.50886719 74.35273438 492.01773437 73.76171875 491.51171875 C70.48479449 488.69981257 67.22944233 485.86640099 64 483 C63.50177734 482.55897949 63.00355469 482.11795898 62.49023438 481.66357422 C60.84157565 480.19903217 59.20129209 478.72556869 57.5625 477.25 C57.02987549 476.77796143 56.49725098 476.30592285 55.94848633 475.81958008 C53.46283869 473.56586716 52.07998523 472.2399557 51 469 C49.68367206 468.30035511 48.34776319 467.63699027 47 467 C45.359375 465.51953125 45.359375 465.51953125 43.75 463.8125 C38.53719685 458.45612388 32.90257482 453.71865648 27.0625 449.0625 C21.78444579 444.76848979 16.78553186 440.20506354 11.8125 435.5625 C11.04494385 434.8516626 10.2773877 434.1408252 9.48657227 433.40844727 C8.42007446 432.40382446 8.42007446 432.40382446 7.33203125 431.37890625 C6.68983643 430.7763501 6.0476416 430.17379395 5.38598633 429.55297852 C4 428 4 428 4 426 C3.41476562 425.74476563 2.82953125 425.48953125 2.2265625 425.2265625 C-0.22137407 423.87805007 -1.71866736 422.4111255 -3.625 420.375 C-6.50110889 417.41944059 -9.43173665 414.78049574 -12.6875 412.25 C-17.996813 408.098786 -22.88601426 403.57477159 -27.80078125 398.97265625 C-31.47652213 395.53405995 -35.26601843 392.22838342 -39.07421875 388.9375 C-41 387 -41 387 -42.01953125 384.875 C-43.28876565 382.44777884 -44.55387472 382.15164292 -47 381 C-48.4610504 379.67225712 -49.87708074 378.29368324 -51.25 376.875 C-51.95640625 376.15054687 -52.6628125 375.42609375 -53.390625 374.6796875 C-53.92171875 374.12539063 -54.4528125 373.57109375 -55 373 C-59.40597633 374.50166234 -62.91002987 376.8917591 -66.625 379.625 C-67.54913696 380.29378174 -67.54913696 380.29378174 -68.49194336 380.97607422 C-71.30914635 383.01799053 -74.10938723 385.0812675 -76.90234375 387.15625 C-81.40604672 390.489387 -85.93524377 393.62297806 -90.73828125 396.51171875 C-99.1951357 401.65944585 -107.39920739 407.18113549 -115.625 412.6875 C-117.31575744 413.81652478 -119.0065959 414.94542825 -120.69750977 416.07421875 C-130.00018479 422.28944441 -139.28244539 428.53447593 -148.55078125 434.80078125 C-149.50494934 435.44560959 -150.45911743 436.09043793 -151.44219971 436.75480652 C-156.05824458 439.87490002 -160.67203139 442.99823552 -165.28173828 446.12768555 C-173.75363812 451.8677857 -182.2557848 457.51945301 -190.98143005 462.86853027 C-193.50617928 464.41870466 -195.95888167 465.96849809 -198.31225586 467.77148438 C-200 469 -200 469 -202 469 C-202 469.66 -202 470.32 -202 471 C-203.83251953 472.48046875 -203.83251953 472.48046875 -206.3828125 474.1875 C-207.30320312 474.80367188 -208.22359375 475.41984375 -209.171875 476.0546875 C-210.63367188 477.01761719 -210.63367188 477.01761719 -212.125 478 C-213.55199219 478.96292969 -213.55199219 478.96292969 -215.0078125 479.9453125 C-215.9359375 480.56148438 -216.8640625 481.17765625 -217.8203125 481.8125 C-218.66867676 482.37582031 -219.51704102 482.93914062 -220.39111328 483.51953125 C-223.18884618 485.10716482 -225.92440664 486.07973488 -229 487 C-228.74903564 486.50185791 -228.49807129 486.00371582 -228.23950195 485.49047852 C-226.52921768 482.05407713 -224.84957442 478.6028368 -223.16796875 475.15234375 C-222.37118265 473.51814412 -221.57438866 471.88394834 -220.77758789 470.24975586 C-220.35591339 469.38478485 -219.93423889 468.51981384 -219.49978638 467.62863159 C-218.17427443 464.91037805 -216.8478753 462.19255908 -215.52124023 459.47485352 C-211.21343327 450.64864976 -206.9100749 441.82038433 -202.6259613 432.98265076 C-200.73159778 429.07590448 -198.83384328 425.17081037 -196.93569946 421.26589966 C-196.02618479 419.39255856 -195.11826485 417.5184423 -194.21200562 415.64352417 C-192.9383992 413.00903846 -191.65923118 410.37731946 -190.37890625 407.74609375 C-190.00881439 406.97688599 -189.63872253 406.20767822 -189.25741577 405.41516113 C-187.12800727 401.05484339 -184.7735843 396.96133644 -182.1605072 392.87406921 C-180.49044921 390.1771413 -179.11835581 387.37174653 -177.75 384.51171875 C-166.61627732 361.28167029 -155.30558268 338.14952643 -144 315 C-199.44 315 -254.88 315 -312 315 C-310.71513612 311.14540836 -309.51124231 310.9178039 -305.96875 309.07421875 C-304.92976563 308.52443359 -303.89078125 307.97464844 -302.8203125 307.40820312 C-301.72460938 306.84037109 -300.62890625 306.27253906 -299.5 305.6875 C-290.77242696 301.16975665 -290.77242696 301.16975665 -282.44921875 295.96484375 C-277.3202547 292.44179601 -271.85474453 289.6859447 -266.3125 286.875 C-258.06672247 282.64262171 -249.87114992 278.34203562 -241.75 273.875 C-234.27999395 269.77566462 -226.78680976 265.72538901 -219.25 261.75 C-218.34991211 261.27159668 -217.44982422 260.79319336 -216.52246094 260.30029297 C-215.28157715 259.64891357 -215.28157715 259.64891357 -214.015625 258.984375 C-213.28633789 258.59991211 -212.55705078 258.21544922 -211.80566406 257.81933594 C-210 257 -210 257 -208 257 C-208 256.34 -208 255.68 -208 255 C-206.53125 254.20442708 -205.0625 253.40885417 -203.59375 252.61328125 C-202.15249756 251.83247192 -202.15249756 251.83247192 -200.68212891 251.03588867 C-198.54407724 249.87795506 -196.4057262 248.72057407 -194.26708984 247.5637207 C-188.54856617 244.46935936 -182.83549096 241.36566659 -177.1328125 238.2421875 C-176.04162109 237.64623779 -174.95042969 237.05028809 -173.82617188 236.4362793 C-171.71366608 235.28223117 -169.60294576 234.12490791 -167.49414062 232.96411133 C-166.53958984 232.44357178 -165.58503906 231.92303223 -164.6015625 231.38671875 C-163.75932129 230.92483154 -162.91708008 230.46294434 -162.04931641 229.98706055 C-160 229 -160 229 -158 229 C-167.94004527 217.50880729 -178.19034155 206.34594468 -189.5234375 196.21484375 C-194.43952344 191.74033144 -199.1102734 187.00913392 -203.8125 182.3125 C-204.70864014 181.42079102 -205.60478027 180.52908203 -206.52807617 179.61035156 C-210.36948057 175.76070303 -214.1445052 171.90497972 -217.6875 167.77734375 C-220.94909519 163.98145185 -224.49081969 160.61671296 -228.1875 157.25 C-234.78087532 151.15355332 -241.20839033 144.90780002 -247.5625 138.5625 C-248.39483154 137.73459961 -249.22716309 136.90669922 -250.0847168 136.05371094 C-254.37443016 131.75404063 -258.50642525 127.39302818 -262.41601562 122.7434082 C-264.63737423 120.29847575 -267.12351833 118.26545152 -269.71484375 116.2265625 C-270.13894531 115.82179688 -270.56304687 115.41703125 -271 115 C-271 114.34 -271 113.68 -271 113 C-262.5355254 113.60048337 -254.32191838 115.19219838 -246.015625 116.87109375 C-244.58703679 117.15664528 -243.15838567 117.44188222 -241.72967529 117.7268219 C-238.75389263 118.3214103 -235.77880587 118.91933209 -232.80419922 119.51977539 C-229.00381552 120.28669047 -225.20192877 121.0458313 -221.39950943 121.80258083 C-218.45632594 122.38909875 -215.51390685 122.97937896 -212.57170868 123.57081795 C-211.17017852 123.85215537 -209.76843241 124.13241931 -208.36646271 124.41155815 C-206.40663955 124.80242577 -204.44792425 125.19883564 -202.48925781 125.59545898 C-201.37802551 125.81894516 -200.26679321 126.04243134 -199.12188721 126.27268982 C-196 127 -196 127 -192.9927063 128.00474548 C-189.88197841 129.03924927 -186.84604725 129.71116645 -183.62744141 130.32861328 C-182.36939697 130.57200439 -181.11135254 130.81539551 -179.81518555 131.06616211 C-178.49399846 131.31765377 -177.17279094 131.56903818 -175.8515625 131.8203125 C-174.63879639 132.05419678 -173.42603027 132.28808105 -172.17651367 132.52905273 C-167.66019397 133.39880185 -163.14251521 134.26148185 -158.625 135.125 C-148.51875 137.06375 -138.4125 139.0025 -128 141 C-128 108 -128 75 -128 41 C-127.34 41 -126.68 41 -126 41 C-124.62280273 42.39624023 -124.62280273 42.39624023 -122.99609375 44.37109375 C-118.60657951 49.5306185 -113.86110746 54.28549167 -109.0625 59.0625 C-108.20720703 59.92166016 -107.35191406 60.78082031 -106.47070312 61.66601562 C-102.02578822 66.10414957 -97.52572039 70.40772825 -92.74414062 74.48242188 C-88.4735597 78.19825769 -84.60139387 82.25732357 -80.9375 86.56640625 C-76.39040242 91.78777223 -71.47910047 96.62941522 -66.5625 101.5 C-65.64017578 102.4178125 -64.71785156 103.335625 -63.76757812 104.28125 C-61.51400101 106.52315055 -59.25810925 108.762666 -57 111 C-54.88928776 108.31332792 -53.20781736 105.66275643 -51.6875 102.60546875 C-51.04325073 101.31515747 -51.04325073 101.31515747 -50.38598633 99.9987793 C-49.92861084 99.07105713 -49.47123535 98.14333496 -49 97.1875 C-48.27043091 95.7176062 -48.27043091 95.7176062 -47.52612305 94.21801758 C-43.30599587 85.6859178 -39.20054041 77.10039506 -35.10546875 68.5078125 C-31.64861526 61.25819829 -28.18074324 54.01400138 -24.69247437 46.77944946 C-23.98862844 45.31768992 -23.28646083 43.8551209 -22.58609009 42.39169312 C-16.13302978 28.9119284 -16.13302978 28.9119284 -12.17529297 22.88989258 C-9.72575015 18.95098295 -7.78213273 14.72715525 -5.75 10.5625 C-4.87152897 8.77128234 -3.99141137 6.98087094 -3.109375 5.19140625 C-2.72749023 4.40967041 -2.34560547 3.62793457 -1.95214844 2.82250977 C-1 1 -1 1 0 0 Z " fill="#BB1A33" transform="translate(312,0)"/>
<path d="M0 0 C0.66 0 1.32 0 2 0 C2.79671898 3.89481764 3.58735896 7.79083649 4.375 11.6875 C4.60759521 12.83766602 4.84019043 13.98783203 5.07983398 15.17285156 C6.21621812 20.85437 7.2869797 26.5083038 8.0625 32.25 C8.81575024 37.66036468 10.41619896 42.59974814 12.12109375 47.77734375 C13.28118533 52.03101287 13.57344636 56.14580704 13.7265625 60.5390625 C13.83744724 63.25387902 13.83744724 63.25387902 16 66 C16.6328125 68.0859375 16.6328125 68.0859375 17.125 70.375 C17.37636719 71.50035156 17.37636719 71.50035156 17.6328125 72.6484375 C18.02118409 75.1356683 18.02451354 77.4865795 18 80 C18.55945313 79.86013672 19.11890625 79.72027344 19.6953125 79.57617188 C20.49710938 79.37572266 21.29890625 79.17527344 22.125 78.96875 C23.041604 78.73953857 23.95820801 78.51032715 24.90258789 78.27416992 C27.01884749 77.74523013 29.13522668 77.21676866 31.25170898 76.6887207 C37.28649942 75.18227696 43.3189103 73.66718455 49.34765625 72.13671875 C64.63363923 68.26749408 79.95149258 64.56053599 95.3125 61 C96.17795441 60.7983725 97.04340881 60.596745 97.93508911 60.38900757 C100.38947537 59.81810368 102.84490278 59.2519459 105.30078125 58.6875 C106.03677551 58.51603958 106.77276978 58.34457916 107.53106689 58.16792297 C110.42581836 57.50803874 113.01973362 57 116 57 C114.47920927 60.50827915 112.4004327 62.95271646 109.8125 65.75 C107.06808664 68.74271743 104.33867394 71.73687703 101.6875 74.8125 C99.08214442 77.81077463 96.40158968 80.72799715 93.69238281 83.63183594 C88.67200414 89.01505817 83.89727133 94.50006238 79.28515625 100.2421875 C75.86530917 104.36938756 72.22004692 108.27648717 68.578125 112.20703125 C65.31281594 115.7444494 62.14070329 119.35220399 59 123 C58.505 123.55429688 58.01 124.10859375 57.5 124.6796875 C55.17220948 127.33813008 53.41351884 129.41617008 53 133 C53.58773193 133.27763184 54.17546387 133.55526367 54.78100586 133.84130859 C56.87213245 134.93323145 58.63087771 136.11221639 60.50390625 137.5390625 C61.15649414 138.03301514 61.80908203 138.52696777 62.48144531 139.03588867 C63.16819336 139.56029541 63.85494141 140.08470215 64.5625 140.625 C66.00603377 141.71807766 67.45004544 142.8105245 68.89453125 143.90234375 C69.59787598 144.43456543 70.3012207 144.96678711 71.02587891 145.51513672 C73.57929816 147.43572736 76.16033827 149.31613861 78.75 151.1875 C88.60997433 158.32339734 98.50908534 165.51878318 107.8125 173.375 C109.95051768 174.96324171 111.38946854 175.6132546 114 176 C114.33 177.32 114.66 178.64 115 180 C87.94 180 60.88 180 33 180 C34.98 190.395 34.98 190.395 37 201 C37.495 203.701875 37.99 206.40375 38.5 209.1875 C40.53088602 220.03728781 42.88152204 230.82359605 45.6875 241.5 C46.60636238 245.06734807 47.21015117 248.45358148 47.5 252.125 C47.84035183 256.41343307 48.85983318 260.146417 50.171875 264.23046875 C52.24903273 271.17718964 53.87278372 278.38875181 54.4375 285.625 C54.75846741 289.30588155 55.76615217 292.4570762 57 295.9375 C58.90411752 301.31180271 59.74859373 306.31821829 60 312 C55.91620659 310.64827153 53.62316481 308.93063758 50.6875 305.8125 C47.86227983 302.88437445 45.03128932 300.08061923 41.9375 297.4375 C39.21825604 295.10901354 36.68049967 292.69400576 34.1875 290.125 C31.27329107 287.16569693 28.24803943 284.52525039 25 281.9375 C17.96386924 276.28520659 11.4978101 270.04835408 4.95166016 263.84277344 C2.09273061 261.14334885 -0.79430738 258.47510468 -3.6875 255.8125 C-4.20836182 255.33296875 -4.72922363 254.8534375 -5.26586914 254.359375 C-6.31093339 253.39735038 -7.3560991 252.43543595 -8.40136719 251.47363281 C-10.0751002 249.93077202 -11.74498566 248.38383349 -13.4140625 246.8359375 C-19.20229921 241.47076677 -25.00588477 236.13576937 -31 231 C-31.886875 230.195625 -32.77375 229.39125 -33.6875 228.5625 C-36.49278286 226.66703861 -37.66985755 226.62943519 -41 227 C-43.22762796 228.25280825 -43.22762796 228.25280825 -45.4375 230.125 C-50.75707051 234.17834296 -56.26970774 237.764741 -61.9375 241.3125 C-70.74249606 246.85486608 -79.40132882 252.58281696 -88 258.4375 C-88.58795349 258.83737122 -89.17590698 259.23724243 -89.78167725 259.64923096 C-96.06162935 263.9221013 -102.32387221 268.21952432 -108.56640625 272.546875 C-109.58154297 273.24756104 -110.59667969 273.94824707 -111.64257812 274.67016602 C-113.54532658 275.98474883 -115.44398927 277.30527137 -117.33789062 278.63256836 C-118.59569336 279.5008728 -118.59569336 279.5008728 -119.87890625 280.38671875 C-120.6066626 280.89420654 -121.33441895 281.40169434 -122.08422852 281.92456055 C-124 283 -124 283 -127 283 C-126.08804417 277.64506144 -123.9555237 273.24254949 -121.625 268.375 C-121.22539062 267.51648438 -120.82578125 266.65796875 -120.4140625 265.7734375 C-119.82625 264.5359375 -119.82625 264.5359375 -119.2265625 263.2734375 C-118.87158691 262.52497559 -118.51661133 261.77651367 -118.15087891 261.00537109 C-116.97573887 258.95772573 -115.68542783 257.63322307 -114 256 C-112.79265999 253.8458365 -111.65420178 251.65251185 -110.5625 249.4375 C-110.25175537 248.80763184 -109.94101074 248.17776367 -109.62084961 247.52880859 C-107.95475965 244.1094673 -106.41827521 240.67785737 -105.0625 237.125 C-102.60755329 230.76862346 -99.4491605 224.76729818 -96.36621094 218.70019531 C-93.78744354 213.6034892 -91.24103565 208.49051257 -88.68914795 203.38031006 C-87.18441252 200.36761204 -85.6780693 197.35571893 -84.171875 194.34375 C-83.6572168 193.31443359 -83.14255859 192.28511719 -82.61230469 191.22460938 C-80.74153646 187.48307292 -78.87076823 183.74153646 -77 180 C-107.69 180 -138.38 180 -170 180 C-167.90854592 175.81709183 -167.36497592 175.29436734 -163.484375 173.23046875 C-162.11297363 172.49159424 -162.11297363 172.49159424 -160.71386719 171.73779297 C-159.73579102 171.22619629 -158.75771484 170.71459961 -157.75 170.1875 C-156.7487207 169.6527002 -155.74744141 169.11790039 -154.71582031 168.56689453 C-148.37453754 165.19585143 -141.98001986 161.95281576 -135.52734375 158.80078125 C-130.24161896 156.10231046 -125.08948641 153.16566723 -119.95019531 150.19873047 C-119.22026367 149.78381348 -118.49033203 149.36889648 -117.73828125 148.94140625 C-117.08899658 148.56701416 -116.43971191 148.19262207 -115.77075195 147.80688477 C-114 147 -114 147 -111 147 C-111 146.34 -111 145.68 -111 145 C-108.93930083 143.87159372 -106.87656904 142.74721229 -104.8125 141.625 C-103.66394531 140.99851563 -102.51539063 140.37203125 -101.33203125 139.7265625 C-98 138 -98 138 -95.19921875 136.8984375 C-92.84358064 136.10169609 -92.84358064 136.10169609 -91 134 C-91.27066188 130.22604488 -93.23893066 128.41068636 -95.859375 125.84765625 C-97.03886719 124.68266602 -97.03886719 124.68266602 -98.2421875 123.49414062 C-99.06976563 122.69169922 -99.89734375 121.88925781 -100.75 121.0625 C-101.56210938 120.26392578 -102.37421875 119.46535156 -103.2109375 118.64257812 C-104.78928016 117.09122667 -106.37042718 115.54272235 -107.95458984 113.99731445 C-110.32309875 111.68449859 -112.66277568 109.34441577 -115 107 C-116.53873747 105.47232879 -118.07784448 103.94502978 -119.6171875 102.41796875 C-121.3698604 100.67454827 -123.12246256 98.93105665 -124.875 97.1875 C-125.74769531 96.32318359 -126.62039062 95.45886719 -127.51953125 94.56835938 C-132.01797153 90.08683052 -136.36308166 85.54933602 -140.49853516 80.73071289 C-142.4909825 78.43405286 -144.59671057 76.27065365 -146.75 74.125 C-147.48734375 73.38507813 -148.2246875 72.64515625 -148.984375 71.8828125 C-151.05664468 69.84479254 -151.05664468 69.84479254 -154 68 C-154 67.34 -154 66.68 -154 66 C-148.56790392 66.42299109 -143.43144743 67.03883506 -138.15600586 68.47265625 C-135.66001731 69.08315736 -133.16809801 69.48063021 -130.62890625 69.875 C-122.40186977 71.21929926 -114.2922743 73.06406821 -106.15820312 74.87695312 C-100.5330588 76.10889353 -95.01649478 77.28793523 -89.2644043 77.68920898 C-85.78987778 78.16609009 -82.40238672 79.14940332 -79 80 C-79 61.19 -79 42.38 -79 23 C-74.75829901 24.06042525 -73.87570648 24.76439133 -70.9375 27.76953125 C-70.14988281 28.56705811 -69.36226563 29.36458496 -68.55078125 30.1862793 C-67.70902344 31.05293213 -66.86726563 31.91958496 -66 32.8125 C-65.12730469 33.69655518 -64.25460938 34.58061035 -63.35546875 35.49145508 C-60.08896006 38.80089803 -56.83608057 42.12355731 -53.58398438 45.44714355 C-50.39757923 48.70213574 -47.19998236 51.94586351 -44 55.1875 C-43.15824219 56.05415283 -42.31648438 56.92080566 -41.44921875 57.8137207 C-40.66160156 58.61124756 -39.87398437 59.40877441 -39.0625 60.23046875 C-38.37285156 60.93582764 -37.68320312 61.64118652 -36.97265625 62.36791992 C-34.92784573 64.05969694 -33.59533525 64.60699831 -31 65 C-31 63.68 -31 62.36 -31 61 C-30.34 61 -29.68 61 -29 61 C-28.75918701 60.19691406 -28.51837402 59.39382812 -28.27026367 58.56640625 C-26.7097769 54.18516644 -24.7302486 50.1050032 -22.67578125 45.9375 C-22.25129196 45.06915527 -21.82680267 44.20081055 -21.38945007 43.30615234 C-20.03397323 40.5357015 -18.67325631 37.76786089 -17.3125 35 C-16.41698649 33.17073503 -15.52180115 31.34130936 -14.62695312 29.51171875 C-9.79921557 19.65035434 -4.93251854 9.80939554 0 0 Z " fill="#FBA940" transform="translate(308,103)"/>
<path d="M0 0 C0.66 0 1.32 0 2 0 C3.98 10.56 5.96 21.12 8 32 C15.94203237 31.12991247 15.94203237 31.12991247 23.3125 29.125 C27.66622064 27.72813881 32.01227484 26.4029743 36.4375 25.25 C37.82775391 24.88648438 37.82775391 24.88648438 39.24609375 24.515625 C42.21996973 23.95881418 44.98124965 23.91108246 48 24 C45.00379935 28.79683705 41.5834441 32.7879129 37.6875 36.875 C36.5320837 38.10893659 35.37713255 39.3433089 34.22265625 40.578125 C32.34425435 42.57751986 30.45705766 44.56639745 28.55859375 46.546875 C27.92050781 47.23265625 27.28242188 47.9184375 26.625 48.625 C26.08101563 49.19476563 25.53703125 49.76453125 24.9765625 50.3515625 C23.80532098 51.95566813 23.80532098 51.95566813 24.19555664 53.89599609 C25.23876843 56.62449357 26.56300805 57.57171244 28.89453125 59.3125 C29.68537109 59.91320312 30.47621094 60.51390625 31.29101562 61.1328125 C32.53915039 62.05707031 32.53915039 62.05707031 33.8125 63 C35.44590032 64.22665413 37.0774715 65.45574843 38.70703125 66.6875 C39.79721558 67.49767578 39.79721558 67.49767578 40.90942383 68.32421875 C43 70 43 70 47 74 C36.11 74 25.22 74 14 74 C15.22174795 79.96018341 16.44684533 85.91947823 17.68041992 91.87719727 C18.09839518 93.90088205 18.51444346 95.92496589 18.9284668 97.94946289 C19.52657502 100.87234796 20.13177671 103.79369085 20.73828125 106.71484375 C20.91966141 107.60896469 21.10104156 108.50308563 21.28791809 109.42430115 C22.34213659 114.46348269 23.65893628 119.26081999 25.42326355 124.09986877 C26 126 26 126 26 129 C22.14492925 127.39068981 19.53038348 124.90144796 16.5 122.0625 C15.4324706 121.06751632 14.36475691 120.07273033 13.296875 119.078125 C12.75224609 118.56830078 12.20761719 118.05847656 11.64648438 117.53320312 C10.05051091 116.04703566 8.44258164 114.57542196 6.828125 113.109375 C1.6601176 108.41569825 -3.42806096 103.67972637 -8.28125 98.65625 C-8.8484375 98.1096875 -9.415625 97.563125 -10 97 C-10.6290625 96.3915625 -11.258125 95.783125 -11.90625 95.15625 C-12.5971875 94.7746875 -13.288125 94.393125 -14 94 C-18.46005143 95.31253792 -22.1347244 97.91737999 -25.9453125 100.5 C-26.59700409 100.93634766 -27.24869568 101.37269531 -27.9201355 101.82226562 C-29.99136853 103.21051464 -32.05822194 104.60512951 -34.125 106 C-35.52184934 106.9379262 -36.91898195 107.87543065 -38.31640625 108.8125 C-40.87432197 110.52864628 -43.43063661 112.24711801 -45.98486328 113.96875 C-47.98666289 115.31733079 -49.99169328 116.66112886 -52 118 C-51.377669 113.06146321 -49.23844306 109.11092978 -47 104.7421875 C-46.60425781 103.95731964 -46.20851562 103.17245178 -45.80078125 102.36380005 C-44.53951925 99.86462008 -43.27018196 97.36965661 -42 94.875 C-40.73121975 92.37252319 -39.46416268 89.86919476 -38.19921875 87.36477661 C-37.41270283 85.80869761 -36.62372345 84.25386078 -35.83203125 82.70040894 C-34.37528485 79.8267285 -33.02043917 77.06131751 -32 74 C-44.21 74 -56.42 74 -69 74 C-65.15485046 70.15485046 -62.73333722 68.36666861 -58 66 C-56.68 66 -55.36 66 -54 66 C-54 65.34 -54 64.68 -54 64 C-51.54429825 62.66161267 -49.08570084 61.32913768 -46.625 60 C-45.92632812 59.6184375 -45.22765625 59.236875 -44.5078125 58.84375 C-39.2265625 56 -39.2265625 56 -37 56 C-39.2100676 51.93716745 -41.81053623 48.96806778 -45.10546875 45.734375 C-45.5895369 45.25550842 -46.07360504 44.77664185 -46.57234192 44.28326416 C-48.10600611 42.76729484 -49.64624447 41.25824755 -51.1875 39.75 C-52.73852974 38.22656865 -54.28807268 36.7016958 -55.83479309 35.17388916 C-57.22931827 33.7972109 -58.62858704 32.4253427 -60.02807617 31.05371094 C-62 29 -62 29 -62 28 C-55.00668479 28.56379486 -48.23823743 29.62429496 -41.375 31.0625 C-36.734375 32.0215625 -36.734375 32.0215625 -32 33 C-32 25.08 -32 17.16 -32 9 C-26.97408684 13.30792556 -22.33910522 17.57560099 -17.74414062 22.29492188 C-15.13510128 24.99141512 -15.13510128 24.99141512 -12 27 C-11.88664307 26.28432861 -11.77328613 25.56865723 -11.65649414 24.83129883 C-10.95770881 21.81760845 -9.89735488 19.45342166 -8.49609375 16.69921875 C-7.75649414 15.23452148 -7.75649414 15.23452148 -7.00195312 13.74023438 C-6.48568359 12.73283203 -5.96941406 11.72542969 -5.4375 10.6875 C-4.91736328 9.66076172 -4.39722656 8.63402344 -3.86132812 7.57617188 C-2.57959638 5.0479854 -1.29233939 2.522776 0 0 Z " fill="#F5F6F6" transform="translate(298,170)"/>
<path d="M0 0 C0.66 0.33 1.32 0.66 2 1 C1.67 1.66 1.34 2.32 1 3 C30.7 3 60.4 3 91 3 C91 3.33 91 3.66 91 4 C60.31 4 29.62 4 -2 4 C-1.34 2.68 -0.68 1.36 0 0 Z " fill="#DD663A" transform="translate(140,279)"/>
<path d="M0 0 C0.66 0 1.32 0 2 0 C2 0.66 2 1.32 2 2 C17.84 2.495 17.84 2.495 34 3 C33.67 3.99 33.34 4.98 33 6 C33 5.34 33 4.68 33 4 C20.79 4 8.58 4 -4 4 C-2.68 2.68 -1.36 1.36 0 0 Z " fill="#F6E4CB" transform="translate(233,240)"/>
<path d="M0 0 C0.33 0 0.66 0 1 0 C1.33 3.3 1.66 6.6 2 10 C-2.875 8.25 -2.875 8.25 -4 6 C-3.01 6.33 -2.02 6.66 -1 7 C-0.67 4.69 -0.34 2.38 0 0 Z " fill="#E1703B" transform="translate(366,405)"/>
</svg>
